<svg xmlns="http://www.w3.org/2000/svg" xmlns:xlink="http://www.w3.org/1999/xlink" version="1.1" x="0px" y="0px" viewBox="0 0 32 40" style="enable-background:new 0 0 32 32;" xml:space="preserve"><g><path d="M5.51,3.22c1.48-0.5,2.99-0.13,4.03,0.9l1.61,1.61c0.2,0.2,0.2,0.51,0,0.71l-4.71,4.71c-0.2,0.2-0.51,0.2-0.71,0L4.12,9.53   C3.09,8.5,2.71,6.97,3.23,5.48C3.6,4.43,4.46,3.58,5.51,3.22z"/><path d="M28.71,28.71C28.52,28.9,28.26,29,28,29c-0.07,0-0.13-0.01-0.2-0.02l-4.99-1c-0.2-0.04-0.38-0.14-0.53-0.28l-3.95-3.95   c-0.19-0.19-0.2-0.5-0.01-0.69l4.54-4.89c0.19-0.21,0.52-0.21,0.72-0.01l4.13,4.13c0.14,0.14,0.23,0.31,0.27,0.5l1,5.01   C29.05,28.13,28.94,28.47,28.71,28.71z"/><path d="M28.05,4.64l-0.69-0.69C26.75,3.34,25.94,3,25.07,3c-0.98,0-1.9,0.44-2.52,1.21l-5.74,7.18l0,0l-3.54-3.54   c-0.19-0.19-0.51-0.19-0.7,0l-4.72,4.72c-0.19,0.19-0.19,0.51,0,0.7l2.59,2.59c0.09,0.09,0.21,0.14,0.33,0.14   c2.81,0.1,5.24,1.75,6.43,4.13c0.15,0.31,0.57,0.35,0.8,0.1L28.13,9.32C28.69,8.72,29,7.94,29,7.12V6.93   C29,6.07,28.66,5.25,28.05,4.64z"/><path d="M10.5,18C7.47,18,5,20.47,5,23.5c0,1.35-0.52,2.61-1.47,3.56l-0.24,0.23c-0.28,0.29-0.37,0.72-0.21,1.09   C3.23,28.76,3.6,29,4,29h6.5c3.03,0,5.5-2.47,5.5-5.5C16,20.47,13.53,18,10.5,18z"/></g><text x="0" y="47" fill="#000000" font-size="5px" font-weight="bold" font-family="'Helvetica Neue', Helvetica, Arial-Unicode, Arial, Sans-serif">Created by Dewanata Visuals</text><text x="0" y="52" fill="#000000" font-size="5px" font-weight="bold" font-family="'Helvetica Neue', Helvetica, Arial-Unicode, Arial, Sans-serif">from the Noun Project</text></svg>