<svg xmlns="http://www.w3.org/2000/svg" data-name="Warstwa 1" viewBox="0 0 24 30" x="0px" y="0px"><title/><path d="M4.65,13.5A3,3,0,0,1,5,10.4a.51.51,0,0,0-.09-.71.5.5,0,0,0-.7.09A3.94,3.94,0,0,0,3.78,14a3.84,3.84,0,0,0-.9,4.94c1,1.76,5.12,3,5.59,3.11l.13,0A.45.45,0,0,0,8.85,22a.47.47,0,0,0,.23-.3c.13-.47,1.22-4.63.23-6.39A3.83,3.83,0,0,0,4.65,13.5Zm3.6,7.42c-1.39-.45-3.91-1.44-4.5-2.5a2.8,2.8,0,0,1,.92-3.85,2.49,2.49,0,0,1,1.24-.32,3,3,0,0,1,2.53,1.53C9,16.83,8.58,19.5,8.25,20.92Zm11.56-10.1a.54.54,0,0,0-.3-.24.49.49,0,0,0-.39.05C18.7,10.87,15,13,14.45,15a4,4,0,0,0,.29,2.94,3.57,3.57,0,0,0,1.73,1.62A2.92,2.92,0,0,1,14,21.5a.5.5,0,0,0-.43.56.5.5,0,0,0,.49.44h.06a4,4,0,0,0,3.27-2.66,3.55,3.55,0,0,0,.46,0A3.89,3.89,0,0,0,21.56,17C22.1,15,20,11.24,19.81,10.82Zm.79,5.88a2.82,2.82,0,0,1-3.38,2.08,2.57,2.57,0,0,1-1.59-1.32,3,3,0,0,1-.22-2.2c.32-1.17,2.53-2.73,3.77-3.5C19.84,13.06,20.92,15.54,20.6,16.7ZM15.28,5.88a3,3,0,0,1,2.45,1.93.5.5,0,0,0,.47.32.51.51,0,0,0,.17,0,.5.5,0,0,0,.3-.64,4,4,0,0,0-3.34-2.58A3.84,3.84,0,0,0,11.62,1.5c-2-.11-5.24,2.76-5.6,3.09a.48.48,0,0,0-.16.35A.49.49,0,0,0,6,5.3c.33.36,3.28,3.49,5.3,3.58h.19a4,4,0,0,0,2.61-1A3.6,3.6,0,0,0,15.28,5.88Zm-3.94,2C10.13,7.82,8.11,6,7.08,5c1.11-.93,3.29-2.55,4.5-2.49a2.81,2.81,0,0,1,2.78,2.82,2.57,2.57,0,0,1-.92,1.85A3.06,3.06,0,0,1,11.34,7.88Z"/><text x="0" y="39" fill="#000000" font-size="5px" font-weight="bold" font-family="'Helvetica Neue', Helvetica, Arial-Unicode, Arial, Sans-serif">Created by Martin</text><text x="0" y="44" fill="#000000" font-size="5px" font-weight="bold" font-family="'Helvetica Neue', Helvetica, Arial-Unicode, Arial, Sans-serif">from the Noun Project</text></svg>