<svg xmlns="http://www.w3.org/2000/svg" xmlns:xlink="http://www.w3.org/1999/xlink" version="1.1" x="0px" y="0px" viewBox="0 0 100 125" enable-background="new 0 0 100 100" xml:space="preserve"><path d="M38.9199219,24.3798828v41.2832031c-2.6318359-2.7626953-6.3354492-4.4951172-10.4433594-4.4951172  c-7.9628906,0-14.4414063,6.4785156-14.4414063,14.4414063s6.4785156,14.4404297,14.4414063,14.4404297  c7.6582031,0,13.9257813-5.9960938,14.3945313-13.5390625h0.0488281V38.1601563l39.0449219-11.9785156v26.7880859  c-2.6318359-2.7607422-6.3349609-4.4921875-10.4414063-4.4921875c-7.9628906,0-14.4414063,6.4785156-14.4414063,14.4414063  S63.5605469,77.359375,71.5234375,77.359375c7.9423828,0,14.4042969-6.4443359,14.4384766-14.3789063h0.0029297V9.9501953  L38.9199219,24.3798828z M42.9199219,33.9765625v-6.6396484l39.0449219-11.9755859v6.6357422L42.9199219,33.9765625z"/><text x="0" y="115" fill="#000000" font-size="5px" font-weight="bold" font-family="'Helvetica Neue', Helvetica, Arial-Unicode, Arial, Sans-serif">Created by Ariyanto Deni</text><text x="0" y="120" fill="#000000" font-size="5px" font-weight="bold" font-family="'Helvetica Neue', Helvetica, Arial-Unicode, Arial, Sans-serif">from the Noun Project</text></svg>