<svg xmlns="http://www.w3.org/2000/svg" xmlns:xlink="http://www.w3.org/1999/xlink" viewBox="0 0 100 125" version="1.1" x="0px" y="0px"><title>Shape</title><desc>Created with Sketch.</desc><g stroke="none" stroke-width="1" fill="none" fill-rule="evenodd"><path d="M52.3500276,82.5364087 L51.7861059,79.5504437 C54.3589587,80.2081699 57.0550968,80.5578406 59.8329049,80.5578406 C77.7218197,80.5578406 92.2236504,66.0560099 92.2236504,48.1670951 C92.2236504,30.2781803 77.7218197,15.7763496 59.8329049,15.7763496 C45.4896969,15.7763496 33.3239509,25.0991725 29.0647677,38.0157173 C28.7576939,37.9967636 28.4480934,37.9871465 28.1362468,37.9871465 C27.4527572,37.9871465 26.7800578,38.0333446 26.1211007,38.1227885 C30.4432894,23.5945568 43.9008515,13 59.8329049,13 C79.2551552,13 95,28.7448448 95,48.1670951 C95,67.5893454 79.2551552,83.3341902 59.8329049,83.3341902 C57.2650341,83.3341902 54.7614453,83.0589667 52.3500276,82.5364087 L52.3500276,82.5364087 Z M51.472229,78.0292437 C50.2795691,73.2401313 46.9432912,69.4015929 42.6168076,67.4695996 C45.1855147,64.3703386 49.0570073,62.4414872 53.3096878,62.4414872 L66.122439,62.4414872 C72.2644481,62.4414872 77.6113338,66.4648961 79.3866798,72.2268243 C74.0521858,76.5675484 67.2464239,79.1696658 59.8329049,79.1696658 C56.9360418,79.1696658 54.1319764,78.7723517 51.472229,78.0292437 L51.472229,78.0292437 Z M59.7160634,60.4963363 C53.1808773,60.4963363 47.8830623,55.1985213 47.8830623,48.6633353 C47.8830623,42.1281492 53.1808773,36.8303342 59.7160634,36.8303342 C66.2512494,36.8303342 71.5490645,42.1281492 71.5490645,48.6633353 C71.5490645,55.1985213 66.2512494,60.4963363 59.7160634,60.4963363 Z M28.1362468,65.8218311 C20.9610227,65.8218311 15.1443544,60.0051628 15.1443544,52.8299387 C15.1443544,45.6547146 20.9610227,39.8380463 28.1362468,39.8380463 C35.3114708,39.8380463 41.1281392,45.6547146 41.1281392,52.8299387 C41.1281392,60.0051628 35.3114708,65.8218311 28.1362468,65.8218311 Z M20.0648917,67.9574847 L36.2076019,67.9574847 C42.8808526,67.9574847 48.6098191,72.7057662 49.8482204,79.2631008 L51.2724936,86.8046272 L5,86.8046272 L6.42427317,79.2631008 C7.66267442,72.7057662 13.391641,67.9574847 20.0648917,67.9574847 Z M64.7297587,24.1651571 L77.6793878,32.2569834 C78.0044733,32.4601194 78.103333,32.8883277 77.900197,33.2134132 C77.697061,33.5384988 77.2688528,33.6373585 76.9437672,33.4342224 L63.9941382,25.3423961 C63.6690526,25.1392601 63.5701929,24.7110519 63.773329,24.3859664 C63.976465,24.0608808 64.4046732,23.9620211 64.7297587,24.1651571 Z M69.951325,22.656375 L76.622346,26.8248916 C76.9474315,27.0280276 77.0462912,27.4562358 76.8431552,27.7813213 C76.6400192,28.1064069 76.211811,28.2052666 75.8867254,28.0021306 L69.2157044,23.833614 C68.8906188,23.630478 68.7917592,23.2022698 68.9948952,22.8771842 C69.1980312,22.5520986 69.6262394,22.453239 69.951325,22.656375 Z" fill="#000000" fill-rule="nonzero"/></g><text x="0" y="115" fill="#000000" font-size="5px" font-weight="bold" font-family="'Helvetica Neue', Helvetica, Arial-Unicode, Arial, Sans-serif">Created by Tom Ingebretsen</text><text x="0" y="120" fill="#000000" font-size="5px" font-weight="bold" font-family="'Helvetica Neue', Helvetica, Arial-Unicode, Arial, Sans-serif">from the Noun Project</text></svg>