<svg xmlns="http://www.w3.org/2000/svg" data-name="Layer 1" viewBox="0 0 64 80" x="0px" y="0px"><title>Well</title><path d="M55,12H52V11a1,1,0,0,0-1-1H49V6a1,1,0,0,0-1-1H44a1,1,0,0,0-1,1V8H37a3,3,0,0,0-6,0H29V7.56a3,3,0,0,0-6,0V8H21V6a1,1,0,0,0-1-1H16a1,1,0,0,0-1,1V37H13a1,1,0,0,0-1,1V58a1,1,0,0,0,1,1H51a1,1,0,0,0,1-1V38a1,1,0,0,0-1-1H49V12h1v4a1,1,0,0,0,1,1h4a1,1,0,0,0,1-1V13A1,1,0,0,0,55,12ZM21,37V14h6v3a1,1,0,0,0,2,0V14h2v5.14A4,4,0,0,0,28,23a1,1,0,0,0-1,1v7a1,1,0,0,0,1,1h8a1,1,0,0,0,1-1V24a1,1,0,0,0-1-1,4,4,0,0,0-3-3.86V14h2a3,3,0,0,0,6,0h2V37Zm4-25V10h2v2Zm5,11a2,2,0,0,1,4,0Zm3-11V10h2v2Zm4,2h2a1,1,0,0,1-2,0Zm6-2H41V10h2Zm-4-2v2H37V10ZM34,7a1,1,0,0,1,1,1H33A1,1,0,0,1,34,7Zm-3,3v2H29V10ZM25,7.56a1,1,0,0,1,2,0V8H25ZM23,10v2H21V10ZM17,7h2V37H17Zm6,50V54H47a1,1,0,0,0,0-2H42V49h8v8ZM50,42H26a1,1,0,0,0,0,2H50v3H33a1,1,0,0,0-1,1v4H14V49H29a1,1,0,0,0,0-2H23V43a1,1,0,0,0-1-1H14V39H50Zm-5-5V7h2V37Z"/><text x="0" y="79" fill="#000000" font-size="5px" font-weight="bold" font-family="'Helvetica Neue', Helvetica, Arial-Unicode, Arial, Sans-serif">Created by Hilmi HD</text><text x="0" y="84" fill="#000000" font-size="5px" font-weight="bold" font-family="'Helvetica Neue', Helvetica, Arial-Unicode, Arial, Sans-serif">from the Noun Project</text></svg>